<svg width="14" height="16" viewBox="0 0 14 16" fill="none" xmlns="http://www.w3.org/2000/svg">
<path d="M2.24921 4.93113C2.24921 7.97048 4.62462 9.49015 7.00003 9.49015C9.37544 9.49015 11.7509 7.97048 11.7509 4.93113C11.7509 1.77376 9.37544 0.195068 7.00003 0.195068C4.62462 0.195068 2.24921 1.77376 2.24921 4.93113ZM3.42954 4.93113C3.42954 2.48195 5.22954 1.22786 7.00003 1.22786C8.80003 1.22786 10.5705 2.48195 10.5705 4.93113C10.5705 7.24753 8.80003 8.45736 7.00003 8.45736C5.22954 8.45736 3.42954 7.24753 3.42954 4.93113ZM0.168886 15.7902H1.34921C0.936099 14.418 2.82462 12.3967 7.00003 12.3967C11.1754 12.3967 13.064 14.418 12.6509 15.7902H13.8312C14.2443 13.5033 11.7213 11.2754 7.00003 11.2754C2.27872 11.2754 -0.244229 13.5033 0.168886 15.7902Z" fill="#6C6C6C"/>
</svg>
