<svg width="110" height="32" viewBox="0 0 110 32" fill="none" xmlns="http://www.w3.org/2000/svg">
<path fill-rule="evenodd" clip-rule="evenodd" d="M17.4878 9.46226C17.4878 9.46226 16.5589 8.81419 14.8618 8.49002C12.6134 8.06066 7.8166 8.1216 5.89463 4.56904C4.9335 2.77426 5.06193 1.3287 5.0941 0C5.0941 0 5.95705 0.446052 8.32288 0.708174C9.90413 0.882922 17.5249 0.823096 17.4878 9.46226Z" fill="#91D65C"/>
<path fill-rule="evenodd" clip-rule="evenodd" d="M54.2878 10.2072V14.6458C44.2935 10.4991 44.6455 25.0811 54.1572 20.5772C54.1572 21.9142 54.2878 23.63 54.2878 24.9676C34.298 31.6272 33.7535 4.4717 54.285 10.2072" fill="#FCFCFC"/>
<path d="M27.1845 3.04165H20.0882V25.6039H27.1845V3.04165Z" fill="#FCFCFC"/>
<path d="M37.7037 3.07398H30.1564V8.44469H37.7037V3.07398Z" fill="#FCFCFC"/>
<path d="M37.7037 10.041H30.1564V25.7163H37.7037V10.041Z" fill="#FCFCFC"/>
<path fill-rule="evenodd" clip-rule="evenodd" d="M102.498 17.5402C102.498 20.153 101.727 20.8832 100.303 20.8832C98.8796 20.8832 98.524 19.461 98.524 19.461V15.5041C98.524 15.5041 98.8796 14.0831 100.303 14.0831C101.727 14.0831 102.498 14.8129 102.498 17.4255V17.5402ZM100.287 9.96174C99.2564 10.4896 98.5711 11.1872 98.1638 11.7056V9.99903H91.3311V31.7268H98.1638V23.0013C98.5788 23.5225 99.2745 24.2485 100.287 24.847C101.995 25.8563 109.75 26.0806 110 18.8249V15.9825C109.75 8.72682 102.303 8.92717 100.287 9.96174Z" fill="#FCFCFC"/>
<path fill-rule="evenodd" clip-rule="evenodd" d="M10.8475 20.6456C10.8475 20.6456 9.98925 22.4465 7.99907 22.4465C6.0089 22.4465 5.11157 17.7144 10.8475 18.678V20.6456ZM10.443 16.1049C10.443 16.1049 3.9937 14.3839 1.28357 17.9523C-1.23488 21.27 0.0259991 25.4036 4.42215 25.8588C8.48968 26.2801 10.6512 23.7771 10.6512 23.7771L10.7147 23.7221V25.5998H17.5793V15.3328C17.5793 15.3328 17.4772 11.1099 12.0963 10.0542C8.7853 9.40525 2.9487 10.1424 1.89215 10.6936L1.82807 14.8091C1.82807 14.8091 4.1928 13.575 7.4642 13.6426C9.03362 13.6752 10.7953 13.9993 10.6666 16.0732L10.443 16.1049Z" fill="#FCFCFC"/>
<path fill-rule="evenodd" clip-rule="evenodd" d="M84.9968 10.7258C84.196 11.4062 83.7481 12.1194 83.5237 12.7672L83.5253 9.99875H76.3761V25.8132H83.9098V19.5478C83.9725 16.6887 85.3868 15.9572 86.1177 15.6191C87.1748 15.1307 89.3671 15.1975 89.3671 15.1975V9.7063C86.6941 9.59193 85.7091 10.1217 84.9968 10.7258Z" fill="#FCFCFC"/>
<path fill-rule="evenodd" clip-rule="evenodd" d="M65.065 21.2249C63.4565 21.2249 63.2192 20.2438 63.2192 17.3599C63.2192 14.4785 63.5241 13.9014 65.065 13.9014C66.6074 13.9014 66.8701 14.4785 66.8701 17.3599C66.8728 20.2435 66.6776 21.2249 65.0661 21.2249H65.065ZM65.2613 9.58943C59.9082 9.58943 55.5687 11.8492 55.5687 17.6846C55.5687 23.9797 61.0126 25.7806 65.2613 25.7806C70.0441 25.7806 74.9548 23.882 74.9548 17.6846C74.9548 11.7003 70.6128 9.58943 65.2613 9.58943Z" fill="#FCFCFC"/>
</svg>
